<mxfile host="app.diagrams.net" modified="2023-09-11T10:56:33.369Z" agent="Mozilla/5.0 (Windows NT 10.0; Win64; x64) AppleWebKit/537.36 (KHTML, like Gecko) Chrome/116.0.0.0 Safari/537.36" etag="vSJoIOTdO6uHJsZclcVW" version="21.7.4" type="device">
  <diagram name="1 oldal" id="Qvx6F29M3QPDZ9PDfMLj">
    <mxGraphModel dx="1434" dy="790" grid="1" gridSize="10" guides="1" tooltips="1" connect="1" arrows="1" fold="1" page="1" pageScale="1" pageWidth="827" pageHeight="1169" math="0" shadow="0">
      <root>
        <mxCell id="0" />
        <mxCell id="1" parent="0" />
        <object label="&lt;font face=&quot;Times New Roman&quot; style=&quot;font-size: 18px;&quot;&gt;születési dátum&lt;/font&gt;" id="vypsCzk9VfAZNJeM1Lqd-1">
          <mxCell style="ellipse;whiteSpace=wrap;html=1;" parent="1" vertex="1">
            <mxGeometry x="20" y="120" width="190" height="60" as="geometry" />
          </mxCell>
        </object>
        <object label="&lt;font face=&quot;Times New Roman&quot; style=&quot;font-size: 18px;&quot;&gt;név&lt;/font&gt;" id="vypsCzk9VfAZNJeM1Lqd-3">
          <mxCell style="ellipse;whiteSpace=wrap;html=1;" parent="1" vertex="1">
            <mxGeometry x="250" y="50" width="90" height="50" as="geometry" />
          </mxCell>
        </object>
        <mxCell id="vypsCzk9VfAZNJeM1Lqd-4" value="&lt;font style=&quot;font-size: 18px;&quot; face=&quot;Times New Roman&quot;&gt;Személy&lt;/font&gt;" style="rounded=0;whiteSpace=wrap;html=1;" parent="1" vertex="1">
          <mxGeometry x="200" y="210" width="125" height="50" as="geometry" />
        </mxCell>
        <object label="&lt;font style=&quot;font-size: 18px;&quot; face=&quot;Times New Roman&quot;&gt;&lt;u&gt;személyi szám&lt;/u&gt;&lt;/font&gt;" id="vypsCzk9VfAZNJeM1Lqd-5">
          <mxCell style="ellipse;whiteSpace=wrap;html=1;" parent="1" vertex="1">
            <mxGeometry x="380" y="100" width="190" height="60" as="geometry" />
          </mxCell>
        </object>
        <mxCell id="vypsCzk9VfAZNJeM1Lqd-6" value="&lt;font face=&quot;Times New Roman&quot; style=&quot;font-size: 18px;&quot;&gt;kölcsönzés&lt;/font&gt;" style="rhombus;whiteSpace=wrap;html=1;" parent="1" vertex="1">
          <mxGeometry x="200" y="310" width="130" height="80" as="geometry" />
        </mxCell>
        <mxCell id="vypsCzk9VfAZNJeM1Lqd-7" value="&lt;font face=&quot;Times New Roman&quot; style=&quot;font-size: 18px;&quot;&gt;Könyv&lt;/font&gt;" style="rounded=0;whiteSpace=wrap;html=1;" parent="1" vertex="1">
          <mxGeometry x="215" y="460" width="110" height="60" as="geometry" />
        </mxCell>
        <object label="&lt;font face=&quot;Times New Roman&quot; style=&quot;font-size: 18px;&quot;&gt;szerző&lt;/font&gt;" id="vypsCzk9VfAZNJeM1Lqd-8">
          <mxCell style="ellipse;whiteSpace=wrap;html=1;" parent="1" vertex="1">
            <mxGeometry x="40" y="570" width="130" height="55" as="geometry" />
          </mxCell>
        </object>
        <object label="cím" id="vypsCzk9VfAZNJeM1Lqd-9">
          <mxCell style="ellipse;whiteSpace=wrap;html=1;" parent="1" vertex="1">
            <mxGeometry x="390" y="430" width="110" height="60" as="geometry" />
          </mxCell>
        </object>
        <object label="&lt;font style=&quot;font-size: 18px;&quot; face=&quot;Times New Roman&quot;&gt;&lt;u&gt;I SBN&lt;/u&gt;&lt;/font&gt;" id="RWbtgAIARpGJNCM_n5Ez-1">
          <mxCell style="ellipse;whiteSpace=wrap;html=1;" vertex="1" parent="1">
            <mxGeometry x="215" y="620" width="105" height="80" as="geometry" />
          </mxCell>
        </object>
        <object label="&lt;font style=&quot;font-size: 18px;&quot; face=&quot;Times New Roman&quot;&gt;Kiadási év&lt;/font&gt;" id="RWbtgAIARpGJNCM_n5Ez-2">
          <mxCell style="ellipse;whiteSpace=wrap;html=1;" vertex="1" parent="1">
            <mxGeometry x="350" y="570" width="130" height="70" as="geometry" />
          </mxCell>
        </object>
        <mxCell id="RWbtgAIARpGJNCM_n5Ez-5" value="" style="endArrow=none;html=1;rounded=0;entryX=0.1;entryY=0.833;entryDx=0;entryDy=0;entryPerimeter=0;exitX=0.856;exitY=0;exitDx=0;exitDy=0;exitPerimeter=0;" edge="1" parent="1" source="vypsCzk9VfAZNJeM1Lqd-4" target="vypsCzk9VfAZNJeM1Lqd-5">
          <mxGeometry width="50" height="50" relative="1" as="geometry">
            <mxPoint x="325" y="230" as="sourcePoint" />
            <mxPoint x="375" y="180" as="targetPoint" />
          </mxGeometry>
        </mxCell>
        <mxCell id="RWbtgAIARpGJNCM_n5Ez-6" value="" style="endArrow=none;html=1;rounded=0;entryX=0.5;entryY=1;entryDx=0;entryDy=0;exitX=0.5;exitY=0;exitDx=0;exitDy=0;" edge="1" parent="1" source="vypsCzk9VfAZNJeM1Lqd-4" target="vypsCzk9VfAZNJeM1Lqd-3">
          <mxGeometry width="50" height="50" relative="1" as="geometry">
            <mxPoint x="270" y="210" as="sourcePoint" />
            <mxPoint x="362" y="150" as="targetPoint" />
          </mxGeometry>
        </mxCell>
        <mxCell id="RWbtgAIARpGJNCM_n5Ez-7" value="" style="endArrow=none;html=1;rounded=0;entryX=1;entryY=1;entryDx=0;entryDy=0;exitX=0.312;exitY=0;exitDx=0;exitDy=0;exitPerimeter=0;" edge="1" parent="1" source="vypsCzk9VfAZNJeM1Lqd-4" target="vypsCzk9VfAZNJeM1Lqd-1">
          <mxGeometry width="50" height="50" relative="1" as="geometry">
            <mxPoint x="140" y="220" as="sourcePoint" />
            <mxPoint x="190" y="170" as="targetPoint" />
          </mxGeometry>
        </mxCell>
        <mxCell id="RWbtgAIARpGJNCM_n5Ez-8" value="" style="endArrow=none;html=1;rounded=0;entryX=0.5;entryY=1;entryDx=0;entryDy=0;exitX=0.5;exitY=0;exitDx=0;exitDy=0;" edge="1" parent="1" source="vypsCzk9VfAZNJeM1Lqd-6" target="vypsCzk9VfAZNJeM1Lqd-4">
          <mxGeometry width="50" height="50" relative="1" as="geometry">
            <mxPoint x="215" y="310" as="sourcePoint" />
            <mxPoint x="265" y="260" as="targetPoint" />
          </mxGeometry>
        </mxCell>
        <mxCell id="RWbtgAIARpGJNCM_n5Ez-9" value="" style="endArrow=none;html=1;rounded=0;entryX=0.5;entryY=1;entryDx=0;entryDy=0;exitX=0.5;exitY=0;exitDx=0;exitDy=0;" edge="1" parent="1" source="vypsCzk9VfAZNJeM1Lqd-7" target="vypsCzk9VfAZNJeM1Lqd-6">
          <mxGeometry width="50" height="50" relative="1" as="geometry">
            <mxPoint x="250" y="450" as="sourcePoint" />
            <mxPoint x="300" y="400" as="targetPoint" />
          </mxGeometry>
        </mxCell>
        <mxCell id="RWbtgAIARpGJNCM_n5Ez-10" value="" style="endArrow=none;html=1;rounded=0;entryX=0.064;entryY=0.683;entryDx=0;entryDy=0;entryPerimeter=0;exitX=1;exitY=0.5;exitDx=0;exitDy=0;" edge="1" parent="1" source="vypsCzk9VfAZNJeM1Lqd-7" target="vypsCzk9VfAZNJeM1Lqd-9">
          <mxGeometry width="50" height="50" relative="1" as="geometry">
            <mxPoint x="340" y="510" as="sourcePoint" />
            <mxPoint x="390" y="460" as="targetPoint" />
          </mxGeometry>
        </mxCell>
        <mxCell id="RWbtgAIARpGJNCM_n5Ez-11" value="" style="endArrow=none;html=1;rounded=0;entryX=0;entryY=0.75;entryDx=0;entryDy=0;exitX=0.769;exitY=0;exitDx=0;exitDy=0;exitPerimeter=0;" edge="1" parent="1" source="vypsCzk9VfAZNJeM1Lqd-8" target="vypsCzk9VfAZNJeM1Lqd-7">
          <mxGeometry width="50" height="50" relative="1" as="geometry">
            <mxPoint x="140" y="580" as="sourcePoint" />
            <mxPoint x="190" y="530" as="targetPoint" />
          </mxGeometry>
        </mxCell>
        <mxCell id="RWbtgAIARpGJNCM_n5Ez-12" value="" style="endArrow=none;html=1;rounded=0;entryX=0.5;entryY=1;entryDx=0;entryDy=0;exitX=0.5;exitY=0;exitDx=0;exitDy=0;" edge="1" parent="1" source="RWbtgAIARpGJNCM_n5Ez-1" target="vypsCzk9VfAZNJeM1Lqd-7">
          <mxGeometry width="50" height="50" relative="1" as="geometry">
            <mxPoint x="260" y="625" as="sourcePoint" />
            <mxPoint x="310" y="575" as="targetPoint" />
          </mxGeometry>
        </mxCell>
        <mxCell id="RWbtgAIARpGJNCM_n5Ez-14" value="" style="endArrow=none;html=1;rounded=0;entryX=1;entryY=1;entryDx=0;entryDy=0;exitX=0.269;exitY=0.086;exitDx=0;exitDy=0;exitPerimeter=0;" edge="1" parent="1" source="RWbtgAIARpGJNCM_n5Ez-2" target="vypsCzk9VfAZNJeM1Lqd-7">
          <mxGeometry width="50" height="50" relative="1" as="geometry">
            <mxPoint x="380" y="580" as="sourcePoint" />
            <mxPoint x="430" y="530" as="targetPoint" />
          </mxGeometry>
        </mxCell>
      </root>
    </mxGraphModel>
  </diagram>
</mxfile>
